<svg width="33" height="33" viewBox="0 0 33 33" fill="none" xmlns="http://www.w3.org/2000/svg">
<path d="M10.0737 7.77054V3.77054C10.0737 3.50532 10.1791 3.25097 10.3666 3.06343C10.5542 2.8759 10.8085 2.77054 11.0737 2.77054C11.339 2.77054 11.5933 2.8759 11.7809 3.06343C11.9684 3.25097 12.0737 3.50532 12.0737 3.77054V7.77054C12.0737 8.03575 11.9684 8.29011 11.7809 8.47764C11.5933 8.66518 11.339 8.77054 11.0737 8.77054C10.8085 8.77054 10.5542 8.66518 10.3666 8.47764C10.1791 8.29011 10.0737 8.03575 10.0737 7.77054ZM15.0737 8.77054C15.339 8.77054 15.5933 8.66518 15.7809 8.47764C15.9684 8.29011 16.0737 8.03575 16.0737 7.77054V3.77054C16.0737 3.50532 15.9684 3.25097 15.7809 3.06343C15.5933 2.8759 15.339 2.77054 15.0737 2.77054C14.8085 2.77054 14.5542 2.8759 14.3666 3.06343C14.1791 3.25097 14.0737 3.50532 14.0737 3.77054V7.77054C14.0737 8.03575 14.1791 8.29011 14.3666 8.47764C14.5542 8.66518 14.8085 8.77054 15.0737 8.77054ZM19.0737 8.77054C19.339 8.77054 19.5933 8.66518 19.7809 8.47764C19.9684 8.29011 20.0737 8.03575 20.0737 7.77054V3.77054C20.0737 3.50532 19.9684 3.25097 19.7809 3.06343C19.5933 2.8759 19.339 2.77054 19.0737 2.77054C18.8085 2.77054 18.5542 2.8759 18.3666 3.06343C18.1791 3.25097 18.0737 3.50532 18.0737 3.77054V7.77054C18.0737 8.03575 18.1791 8.29011 18.3666 8.47764C18.5542 8.66518 18.8085 8.77054 19.0737 8.77054ZM31.0737 15.7705V16.7705C31.0731 18.0421 30.588 19.2655 29.7172 20.1921C28.8464 21.1186 27.6553 21.6786 26.3862 21.758C25.6975 23.6845 24.5372 25.4077 23.0112 26.7705H26.0737C26.339 26.7705 26.5933 26.8759 26.7809 27.0634C26.9684 27.251 27.0737 27.5053 27.0737 27.7705C27.0737 28.0358 26.9684 28.2901 26.7809 28.4776C26.5933 28.6652 26.339 28.7705 26.0737 28.7705H4.07375C3.80853 28.7705 3.55418 28.6652 3.36664 28.4776C3.1791 28.2901 3.07375 28.0358 3.07375 27.7705C3.07375 27.5053 3.1791 27.251 3.36664 27.0634C3.55418 26.8759 3.80853 26.7705 4.07375 26.7705H7.13625C5.8619 25.6424 4.84101 24.257 4.14079 22.7058C3.44056 21.1545 3.0769 19.4725 3.07375 17.7705V11.7705C3.07375 11.5053 3.1791 11.251 3.36664 11.0634C3.55418 10.8759 3.80853 10.7705 4.07375 10.7705H26.0737C27.3998 10.7705 28.6716 11.2973 29.6093 12.235C30.547 13.1727 31.0737 14.4445 31.0737 15.7705ZM29.0737 15.7705C29.073 15.1507 28.8804 14.5464 28.5222 14.0405C28.1641 13.5347 27.6581 13.1521 27.0737 12.9455V17.7705C27.0745 18.3986 27.0244 19.0256 26.9237 19.6455C27.5442 19.4622 28.0888 19.0833 28.4763 18.5651C28.8637 18.047 29.0733 17.4175 29.0737 16.7705V15.7705Z" fill="#9747FF"/>
</svg>
